<?xml version="1.0" standalone="no"?><!DOCTYPE svg PUBLIC "-//W3C//DTD SVG 1.1//EN" "http://www.w3.org/Graphics/SVG/1.1/DTD/svg11.dtd"><svg t="1550396089588" class="icon" style="" viewBox="0 0 1025 1024" version="1.1" xmlns="http://www.w3.org/2000/svg" p-id="3876" xmlns:xlink="http://www.w3.org/1999/xlink" width="64.0625" height="64"><defs><style type="text/css"></style></defs><path d="M983.932284 312.700509c-25.79335-60.96934-62.714948-115.723518-109.740819-162.739407C827.165594 102.943788 772.402858 66.02932 711.420683 40.241676 648.27789 13.538442 581.217463 0 512.091971 0c-69.126918 0-136.19305 13.538442-199.33299 40.241676-60.982175 25.787645-115.746337 62.703539-162.770782 109.719427-47.024445 47.015888-83.947469 101.770066-109.739393 162.739407C13.541295 375.831892 0 442.883762 0 511.999271c0 69.112657 13.541295 136.167379 40.24738 199.29591 25.791923 60.96934 62.713522 115.724945 109.739393 162.740833 47.025871 47.015888 101.788606 83.934634 162.770782 109.722279 63.141367 26.701807 130.206072 40.241676 199.331564 40.241676 69.126918 0 136.188771-13.539868 199.33299-40.238823 60.982175-25.787645 115.743484-62.706391 162.770782-109.722279 47.024445-47.014462 83.947469-101.771493 109.740819-162.740833 26.704659-63.131384 40.24738-130.183254 40.24738-199.298763S1010.636943 375.833318 983.932284 312.700509zM512.089119 998.483293c-268.297327 0-486.573869-218.235183-486.573869-486.485447 0-268.247412 218.277967-486.482595 486.573869-486.482595 268.297327 0 486.573869 218.236609 486.573869 486.482595C998.661561 780.24811 780.386446 998.483293 512.089119 998.483293z" p-id="3877" fill="#1afa29"></path><path d="M354.152986 573.115505c-2.923608 10.074324-11.374973 15.111486-25.346965 15.111486l-120.157419 0c-14.135999 0-21.203999-7.475878-21.203999-22.423357l0-70.925293 145.748255 0 0 14.86904 20.472384 0L353.665242 396.170218 157.465504 396.170218l0 18.035093 175.727355 0 0 62.636509L187.444604 476.841821l0-33.389025-20.960127 0-0.001426 0 0 126.739101c0 25.670701 12.428898 38.508903 37.289545 38.508903l129.662709 0c22.423357 0 36.071613-9.18298 40.946194-27.543236 2.598445-10.071472 5.035736-23.558572 7.311871-40.45845-7.637033-2.110702-14.623742-4.546566-20.960127-7.311871C359.271438 549.959107 357.078019 563.203762 354.152986 573.115505z" p-id="3878" fill="#1afa29"></path><path d="M395.585496 602.36299c28.271998-7.475878 55.569936-13.974844 81.892387-19.498323 0-5.850067 0.243872-12.022445 0.731615-18.522837-28.59716 6.986709-57.925936 13.402958-87.9849 19.253025L395.585496 602.36299z" p-id="3879" fill="#1afa29"></path><path d="M433.000543 478.303625c-14.379871 23.478708-26.770262 40.622458-37.169748 51.428396l3.899094 18.035093c31.197032-5.038588 55.813808-8.854966 73.848901-11.456263 0.489169-6.011222 1.217932-12.186452 2.193419-18.522837-14.134573 2.43729-32.009938 5.199743-53.620389 8.287358 18.685418-26.322451 37.289545-54.918186 55.815234-85.791481l-18.035093-9.016121c-6.014075 11.131101-11.782852 21.407938-17.304905 30.830511-10.238331 0.326588-20.068783 0.608966-29.491357 0.854264 11.210965-17.386195 25.590836-43.302193 43.139612-77.750848l-18.52141-7.311871c-16.086972 37.69885-31.606337 66.538456-46.553816 86.524523l4.630709 16.57329C406.961895 480.092017 419.352287 479.197821 433.000543 478.303625z" p-id="3880" fill="#1afa29"></path><path d="M563.758535 379.595502 544.260211 379.595502 544.260211 418.592149 476.747695 418.592149 476.747695 436.140925 544.260211 436.140925 544.260211 474.162085 484.791181 474.162085 484.791181 491.710861 623.47001 491.710861 623.47001 474.162085 563.758535 474.162085 563.758535 436.140925 632.002666 436.140925 632.002666 418.592149 563.758535 418.592149Z" p-id="3881" fill="#1afa29"></path><path d="M489.665762 619.424023l19.01058 0 0-15.111486 90.667488 0 0 15.111486 19.01058 0 0-98.95342-128.688648 0L489.665762 619.424023zM508.676342 537.531635l90.667488 0 0 49.719869-90.667488 0L508.676342 537.531635z" p-id="3882" fill="#1afa29"></path><path d="M652.47505 448.083505c12.347607-10.315343 23.314701-21.527735 32.904134-33.634322l20.470958 0-8.770823 6.334958c6.00837 6.501818 12.019592 13.487101 18.033667 20.960127l-40.45845 0 0 109.678068 17.061033 0 0-8.043486 141.603863 0 0 8.043486 17.063885 0 0-109.676642-18.887931 0 11.818505-9.502438c-5.850067-6.095365-12.270595-12.025297-19.253025-17.7955l55.569936 0 0-14.135999L802.366271 400.311758c3.899094-6.824128 7.715472-14.053282 11.453411-21.690316l-20.957275 0c-8.941961 19.335742-20.311229 36.234194-34.124918 50.695355 5.687486 3.899094 10.643358 7.718324 14.86904 11.453411 6.905418-7.716898 13.568391-16.490573 19.986067-26.322451l24.253107 0-8.408581 6.334958c7.554317 6.824128 14.419803 13.813689 20.595033 20.960127l-112.35923 0 11.57606-8.773675c-5.850067-6.414823-11.698709-12.590053-17.548776-18.52141l54.839747 0 0-14.135999-70.925293 0c4.632135-6.983857 8.854966-14.215864 12.674195-21.690316l-20.714829 0c-11.537554 22.421931-27.297938 41.432511-47.282578 57.030314C644.838016 439.878864 648.898266 444.020404 652.47505 448.083505zM833.320857 529.732021l-141.606715 0 0-16.330844 141.606715 0L833.320857 529.732021zM833.320857 500.726982l-141.606715 0 0-16.327992 141.606715 0L833.320857 500.726982zM833.320857 455.39395l0 16.330844-141.606715 0 0-16.330844L833.320857 455.39395z" p-id="3883" fill="#1afa29"></path><path d="M824.789628 563.366343 824.789628 548.254858l-18.035093 0 0 15.111486-79.820191 0c0.567608-4.794716 0.852838-9.913169 0.852838-15.356784L709.994533 548.00956c0 5.607622-0.328015 10.724648-0.975487 15.356784l-66.293158 0-0.002852 0 0 15.111486 62.639362 0c-6.014075 13.484249-22.506074 22.503221-49.477423 27.05264 4.064528 5.68606 7.637033 11.048384 10.726074 16.085546 32.658836-6.905418 51.911861-21.285289 57.761929-43.138186l82.380131 0 0 40.946194 18.035093 0 0-40.946194 57.764781 0 0-15.111486L824.789628 563.366343z" p-id="3884" fill="#1afa29"></path></svg>