<?xml version="1.0" standalone="no"?><!DOCTYPE svg PUBLIC "-//W3C//DTD SVG 1.1//EN" "http://www.w3.org/Graphics/SVG/1.1/DTD/svg11.dtd"><svg t="1550396061045" class="icon" style="" viewBox="0 0 1025 1024" version="1.1" xmlns="http://www.w3.org/2000/svg" p-id="3524" xmlns:xlink="http://www.w3.org/1999/xlink" width="64.0625" height="64"><defs><style type="text/css"></style></defs><path d="M983.93093 312.701505c-25.793314-60.970682-62.714861-115.723359-109.740668-162.740609C827.164455 102.943646 772.401795 66.02923 711.419704 40.24162 648.276998 13.538424 581.216663 0 512.091266 0c-69.128249 0-136.194288 13.538424-199.334142 40.24162-60.982092 25.787609-115.746177 62.703452-162.770558 109.719276-47.02438 47.015823-83.947354 101.769926-109.739242 162.740609C13.541276 375.831375 0 442.884579 0 511.998567c0 69.112562 13.541276 136.168618 40.247325 199.295636 25.791888 60.970682 62.713435 115.724785 109.739242 162.742035 47.025806 47.015823 101.788466 83.934519 162.770558 109.722128 63.14128 26.70177 130.205893 40.24162 199.33129 40.24162 69.126823 0 136.19001-13.53985 199.332716-40.238768 60.982092-25.787609 115.743325-62.706305 162.770558-109.722128 47.02438-47.015823 83.947354-101.771353 109.740668-162.742035 26.704623-63.129871 40.247325-130.183074 40.247325-199.298488C1024.178254 442.884579 1010.635552 375.832801 983.93093 312.701505zM512.086988 998.481918c-268.295532 0-486.573199-218.236309-486.573199-486.484778 0-268.247043 218.277667-486.481925 486.573199-486.481925 268.296958 0 486.573199 218.236309 486.573199 486.481925C998.660187 780.248462 780.385372 998.481918 512.086988 998.481918z" p-id="3525" fill="#d81e06"></path><path d="M278.840471 503.163579l101.390571 0 0-18.035069-108.214689 0 0-45.820711 94.808898 0 0-18.035069-94.808898 0 0-41.676325-19.010554 0 0 41.676325-93.834838 0 0 18.036495 93.834838 0 0 45.820711-108.214689 0 0 18.035069 100.658957 0c-25.590801 32.581779-60.443008 60.444434-104.558046 83.599374 5.686052 6.498957 10.072884 11.941138 13.161921 16.327969 41.269873-24.29158 74.255252-52.805985 98.953284-85.546066l0 101.633016 19.010554 0 0-101.878314c22.990933 33.879574 55.893595 61.499783 98.709413 82.866334 4.547986-6.498957 9.097399-12.511597 13.648237-18.035069C340.179099 564.420918 305.000305 538.098503 278.840471 503.163579z" p-id="3526" fill="#d81e06"></path><path d="M432.999947 478.302966c-14.379851 23.480102-26.770225 40.622402-37.169697 51.428326l3.899089 18.035069c31.196989-5.038581 55.813731-8.854953 73.848799-11.456247 0.489169-6.011214 1.21793-12.186435 2.193416-18.522811-14.134554 2.437287-32.009893 5.199736-53.620315 8.287346 18.685392-26.320989 37.29092-54.91811 55.815157-85.791363l-18.035069-9.016108c-6.014066 11.131086-11.782835 21.407909-17.304881 30.831895-10.238317 0.326588-20.068756 0.607539-29.491316 0.852837 11.21095-17.384745 25.590801-43.302134 43.139553-77.750741l-18.521385-7.311861c-16.08695 37.698798-31.606294 66.538364-46.553751 86.524403l4.630703 16.573267C406.961335 480.091356 419.35171 479.198587 432.999947 478.302966z" p-id="3527" fill="#d81e06"></path><path d="M395.586378 602.360735c28.271959-7.475868 55.56986-13.974825 81.892275-19.498296 0-5.850059 0.243871-12.022428 0.731614-18.522811-28.597121 6.988126-57.925856 13.40294-87.983353 19.252999L395.586378 602.360735z" p-id="3528" fill="#d81e06"></path><path d="M489.665088 619.421744l19.010554 0 0-15.111465 90.667364 0 0 15.111465 19.010554 0 0-98.953284-128.688471 0L489.665088 619.421744zM508.675642 537.529469l90.667364 0 0 49.7198-90.667364 0L508.675642 537.529469z" p-id="3529" fill="#d81e06"></path><path d="M563.757759 379.59498 544.259462 379.59498 544.259462 418.591573 476.748465 418.591573 476.748465 436.140325 544.259462 436.140325 544.259462 474.161432 484.790514 474.161432 484.790514 491.708758 623.472005 491.708758 623.472005 474.161432 563.757759 474.161432 563.757759 436.140325 632.001796 436.140325 632.001796 418.591573 563.757759 418.591573Z" p-id="3530" fill="#d81e06"></path><path d="M824.789919 563.364142 824.789919 548.254103l-18.035069 0 0 15.111465-79.822934 0c0.567607-4.793284 0.855689-9.913155 0.855689-15.356762L709.993556 548.008806c0 5.607614-0.328014 10.724633-0.975485 15.356762l-66.293067 0-0.002852 0 0 15.111465 62.639276 0c-6.011214 13.48423-22.506043 22.50319-49.477355 27.052603 4.064522 5.687479 7.637023 11.049795 10.72606 16.085524 32.655939-6.905409 51.914642-21.283834 57.764701-43.138127l82.380017 0 0 40.946137 18.035069 0 0-40.946137 57.761849 0 0-15.111465L824.789919 563.365568z" p-id="3531" fill="#d81e06"></path><path d="M652.474152 448.082889c12.34759-10.315329 23.317521-21.527705 32.904088-33.634276l20.472356 0-8.773663 6.336376c6.011214 6.500383 12.022428 13.487082 18.035069 20.960098l-40.458395 0-0.002852 0 0 109.679344 17.061009 0 0-8.044901 141.603668 0 0 8.044901 17.063862 0 0-109.677917-18.887905 0 11.821341-9.503851c-5.852912-6.095357-12.272004-12.023854-19.255851-17.794049l55.56986 0 0-14.13598-77.260146 0c3.896237-6.824119 7.712609-14.054689 11.450543-21.690286l-20.957246 0c-8.941948 19.335716-20.311201 36.234144-34.124871 50.695285 5.687479 3.899089 10.643343 7.718313 14.871872 11.453395 6.902557-7.716887 13.56552-16.49055 19.986039-26.322415l24.250222 0-8.408569 6.336376c7.557159 6.824119 14.419783 13.812244 20.595004 20.960098l-112.359076 0 11.578896-8.773663c-5.850059-6.41624-11.698693-12.591461-17.548752-18.522811l54.836819 0 0-14.13598-70.922344 0c4.629277-6.985273 8.852101-14.215844 12.674178-21.690286l-20.717653 0c-11.537538 22.4219-27.2979 41.432454-47.282513 57.031661C644.839981 439.878259 648.897372 444.021219 652.474152 448.082889zM833.31971 529.729866l-141.603668 0L691.716042 513.399044l141.603668 0L833.31971 529.729866zM833.31971 500.726292l-141.603668 0 0-16.327969 141.603668 0L833.31971 500.726292zM833.31971 455.393324l0 16.330822-141.603668 0 0-16.330822L833.31971 455.393324z" p-id="3532" fill="#d81e06"></path></svg>